<?xml version="1.0" encoding="UTF-8"?>
<svg xmlns="http://www.w3.org/2000/svg" xmlns:xlink="http://www.w3.org/1999/xlink" width="3744" height="1776" viewBox="0 0 3744 1776">
<rect x="-374.4" y="-177.6" width="4492.8" height="2131.2" fill="rgb(100%, 100%, 100%)" fill-opacity="1"/>
<path fill-rule="nonzero" fill="rgb(0%, 0%, 0%)" fill-opacity="1" d="M 265.867188 236.941406 C 262.820312 236.941406 260.171875 237.960938 257.925781 240 L 258.492188 241.011719 C 569.847656 640.828125 953.351562 889.292969 1409.019531 986.40625 C 1557.910156 1022.628906 1778.070312 1050.792969 2069.488281 1070.90625 C 2154.941406 1077.414062 2310.339844 1082.8125 2535.699219 1087.105469 C 2550.449219 1087.09375 2565.070312 1087.089844 2579.570312 1087.089844 C 2704.609375 1087.089844 2820.480469 1087.464844 2927.191406 1088.21875 L 2927.199219 1088.21875 C 2927.738281 1088.222656 2928.269531 1088.226562 2928.808594 1088.230469 L 2928.820312 1088.230469 C 2936.601562 1088.285156 2944.320312 1088.339844 2952 1088.398438 C 2952 982.191406 2952 875.980469 2952 769.769531 L 2951.980469 769.769531 C 2944.21875 770.089844 2936.480469 770.410156 2928.800781 770.730469 C 2928.25 770.75 2927.71875 770.769531 2927.179688 770.789062 L 2927.179688 770.800781 C 2497.351562 788.4375 2197.949219 797.257812 2029 797.257812 C 2000.480469 797.257812 1975.679688 797.007812 1954.589844 796.503906 C 1752.671875 795.585938 1564.628906 782.265625 1390.46875 756.539062 C 1240.800781 737.519531 1069.890625 685.738281 877.71875 601.210938 C 803.246094 566.53125 737.320312 531.871094 679.933594 497.238281 L 286.09375 246.75 C 278.070312 240.210938 271.328125 236.941406 265.867188 236.941406 Z M 3504 936 L 2952 408 C 2952 760 2952 1112 2952 1464 L 3504 936 "/>
</svg>
